#!OML:ASF F:\twosubjects\two\wednesday\Session 1\rory1.ASF
:FULLY-SPECIFIED
:DEGREES
67
root 8.56548 17.9504 -15.9392 0.645199 -5.72626 6.3235
lowerback 1.05887 -2.43026 -9.49269
upperback -0.0566268 -3.3595 -0.712518
thorax -0.152455 -1.66812 4.59637
lowerneck -14.7503 -3.89441 -3.54072
upperneck 11.2482 -4.77946 1.83621
head 5.94741 -2.33196 0.705008
rclavicle -4.20554e-015 -4.27387e-015
rhumerus -26.8416 -31.3973 -32.7442
rradius 91.2413
rwrist -10.5374
rhand -28.4133 50.5092
rfingers 7.12502
rthumb -1.78506 20.5369
lclavicle -4.20554e-015 -4.27387e-015
lhumerus -20.2031 -11.9635 81.9193
lradius 41.1561
lwrist 5.62427
lhand -22.9812 14.7287
lfingers 7.12502
lthumb 3.46127 44.6803
rfemur -26.9621 11.0254 11.3461
rtibia 23.4962
rfoot -3.75674 -7.16789
rtoes 1.48415
lfemur 10.1534 1.59238 -28.9915
ltibia 20.2946
lfoot -8.14414 -4.27011
ltoes -25.4831
68
root 8.51926 17.9578 -15.77 0.686471 -5.22254 6.29899
lowerback 0.846412 -2.47118 -9.6386
upperback -0.587622 -3.42419 -0.755611
thorax -0.571621 -1.66295 4.63767
lowerneck -12.7225 -3.90521 -3.42869
upperneck 10.8928 -4.88958 1.85447
head 5.49829 -2.39569 0.722773
rclavicle -1.30045e-014 1.80894e-014
rhumerus -27.0644 -31.3983 -31.5044
rradius 92.0546
rwrist -10.7165
rhand -28.4126 50.7586
rfingers 7.12502
rthumb -1.78438 20.7863
lclavicle -1.30045e-014 1.80894e-014
lhumerus -21.4818 -12.4677 82.1582
lradius 41.4735
lwrist 5.49882
lhand -22.558 14.667
lfingers 7.12502
lthumb 3.86989 44.6117
rfemur -27.0279 11.0494 11.5545
rtibia 24.4346
rfoot -2.46858 -5.71892
rtoes 7.0566
lfemur 9.8415 1.5158 -28.5873
ltibia 21.6734
lfoot -7.23087 -4.74796
ltoes -25.98
69
root 8.47851 17.9688 -15.6031 0.499476 -4.67833 6.61091
lowerback 0.864544 -2.63346 -9.96432
upperback -0.668438 -3.65205 -0.848185
thorax -0.618621 -1.76981 4.72352
lowerneck -12.3583 -3.94862 -3.42031
upperneck 10.7854 -4.9456 1.73817
head 5.40218 -2.43389 0.688088
rclavicle -5.61295e-015 -2.17172e-014
rhumerus -26.2156 -31.8854 -30.947
rradius 92.8023
rwrist -10.7147
rhand -28.7448 51.1969
rfingers 7.12502
rthumb -2.10522 21.2275
lclavicle -5.61295e-015 -2.17172e-014
lhumerus -21.7271 -12.1595 82.1
lradius 41.3521
lwrist 5.20793
lhand -22.5513 13.649
lfingers 7.12502
lthumb 3.87645 43.5935
rfemur -26.8555 10.8654 11.4495
rtibia 25.4007
rfoot -1.91089 -4.58078
rtoes 10.0912
lfemur 9.52314 1.52498 -28.5809
ltibia 23.4137
lfoot -6.23591 -5.10099
ltoes -27.925
70
root 8.44847 17.9771 -15.4268 0.240438 -4.29919 6.70124
lowerback 0.717724 -2.87283 -9.61739
upperback -0.358893 -3.93007 -1.00906
thorax -0.203608 -1.93968 4.34245
lowerneck -13.4869 -3.92039 -3.66302
upperneck 11.3539 -4.86428 1.9918
head 5.7798 -2.37705 0.787372
rclavicle -1.96486e-014 1.31198e-014
rhumerus -24.5047 -32.8088 -31.17
rradius 93.3814
rwrist -10.3894
rhand -29.2464 51.5247
rfingers 7.12502
rthumb -2.58963 21.5607
lclavicle -1.96486e-014 1.31198e-014
lhumerus -21.3023 -11.5829 81.6352
lradius 41.1057
lwrist 5.09961
lhand -22.2726 12.9151
lfingers 7.12502
lthumb 4.14556 42.8545
rfemur -26.4676 10.829 11.5676
rtibia 26.388
rfoot -1.51424 -4.77642
rtoes 12.4217
lfemur 9.1362 1.50722 -28.4138
ltibia 25.449
lfoot -4.86138 -5.43097
ltoes -27.3259
71
root 8.41839 17.9849 -15.2521 0.0618893 -3.87887 6.03049
lowerback 0.11721 -3.01683 -8.2041
upperback -0.00491631 -4.02805 -1.31351
thorax 0.398341 -2.02446 3.19885
lowerneck -13.6005 -3.90569 -3.69121
upperneck 11.5719 -4.94221 2.69891
head 5.88922 -2.36087 1.00378
rclavicle 4.46202e-014 1.30701e-014
rhumerus -23.7184 -33.9081 -31.2717
rradius 94.1052
rwrist -10.3096
rhand -29.2993 52.3529
rfingers 7.12502
rthumb -2.64076 22.3895
lclavicle 4.46202e-014 1.30701e-014
lhumerus -21.2496 -12.0919 81.0215
lradius 41.0356
lwrist 4.64315
lhand -22.4873 13.1006
lfingers 7.12502
lthumb 3.93825 43.0439
rfemur -25.9084 10.8687 12.5582
rtibia 27.3281
rfoot -1.48839 -5.53221
rtoes 11.3771
lfemur 8.57653 1.40748 -27.3753
ltibia 27.7085
lfoot -3.13107 -5.66383
ltoes -25.1181
